#!OML:ASF F:\VICON\USERDATA\INSTALL\rory3\rory3.ASF
:FULLY-SPECIFIED
:DEGREES
2495
root 1.2439 17.7846 1.16984 4.15771 11.4947 -1.35015
lowerback 7.11573 2.29654 -0.422217
upperback -0.0594799 3.16919 3.25343
thorax -4.26217 1.61932 3.27216
lowerneck -31.4639 -3.11942 -3.68162
upperneck 1.2679 -2.82526 2.19895
head 5.12736 -1.18115 0.950352
rclavicle 1.98785e-015 7.15625e-015
rhumerus 60.8229 -42.3008 -43.5234
rradius 41.3556
rwrist -13.404
rhand -51.6028 -5.14025
rfingers 7.12502
rthumb -24.1267 -33.6431
lclavicle 1.98785e-015 7.15625e-015
lhumerus -38.798 12.9799 55.8501
lradius 39.1542
lwrist -11.9535
lhand -22.81 33.0389
lfingers 7.12502
lthumb 3.62655 -297.012
rfemur -11.6268 -8.7965 14.7794
rtibia 29.8413
rfoot -20.0139 -9.14487
rtoes 3.68327
lfemur -11.9164 -2.53901 -12.0381
ltibia 26.2996
lfoot -14.862 2.17698
ltoes -23.5042
2496
root 1.24843 17.7821 1.17274 4.06215 12.0301 -1.69246
lowerback 7.11226 2.2749 -0.451629
upperback -0.0380429 3.13945 3.29275
thorax -4.23996 1.60556 3.3336
lowerneck -31.6115 -3.28304 -3.97578
upperneck 1.51887 -2.96006 2.53908
head 5.24307 -1.21833 1.08982
rclavicle 4.6615e-014 -1.35174e-014
rhumerus 60.6678 -42.5157 -43.7565
rradius 41.2112
rwrist -14.059
rhand -51.6096 -5.39626
rfingers 7.12502
rthumb -24.1332 -33.8983
lclavicle 4.6615e-014 -1.35174e-014
lhumerus -39.4113 12.9916 56.0319
lradius 39.1588
lwrist -12.6013
lhand -22.9709 33.2097
lfingers 7.12502
lthumb 3.47119 -296.839
rfemur -11.337 -8.97493 15.1654
rtibia 29.5469
rfoot -20.2136 -9.44248
rtoes 3.51403
lfemur -12.1759 -2.75833 -11.6448
ltibia 26.5724
lfoot -15.0011 1.95913
ltoes -23.4954
2497
root 1.25485 17.7811 1.17413 4.01075 12.5435 -1.99022
lowerback 7.21409 2.26506 -0.486525
upperback -0.124047 3.12734 3.28807
thorax -4.38772 1.60207 3.34473
lowerneck -31.5173 -3.40702 -4.14489
upperneck 1.60258 -3.0868 2.76564
head 5.26994 -1.2617 1.17535
rclavicle -4.2043e-014 2.06736e-014
rhumerus 60.2248 -42.6654 -43.7917
rradius 41.0884
rwrist -14.5568
rhand -51.5483 -4.93326
rfingers 7.12502
rthumb -24.0744 -33.4431
lclavicle -4.2043e-014 2.06736e-014
lhumerus -40.0932 12.9936 56.1778
lradius 39.0959
lwrist -13.4429
lhand -23.2844 33.3759
lfingers 7.12502
lthumb 3.16843 -296.668
rfemur -11.0993 -9.16502 15.4986
rtibia 29.2323
rfoot -20.381 -9.76465
rtoes 3.347
lfemur -12.4602 -2.98816 -11.2936
ltibia 26.8611
lfoot -15.1807 1.6832
ltoes -23.1831
2498
root 1.26245 17.7811 1.17326 3.94913 13.1161 -2.33513
lowerback 7.29413 2.20917 -0.462814
upperback -0.171534 3.0573 3.28331
thorax -4.47621 1.56778 3.33094
lowerneck -31.4515 -3.4719 -4.23189
upperneck 1.55659 -3.16232 2.9849
head 5.25504 -1.27907 1.25294
rclavicle -4.54223e-014 1.11319e-014
rhumerus 59.8499 -42.8125 -43.8758
rradius 40.97
rwrist -15.0124
rhand -51.4977 -4.64817
rfingers 7.12502
rthumb -24.0259 -33.1644
lclavicle -4.54223e-014 1.11319e-014
lhumerus -40.7232 13.1212 56.2888
lradius 39.0101
lwrist -14.402
lhand -23.9881 33.186
lfingers 7.12502
lthumb 2.4888 -296.849
rfemur -10.8559 -9.41136 15.87
rtibia 28.9417
rfoot -20.4695 -9.97982
rtoes 3.84214
lfemur -12.7717 -3.20522 -10.8963
ltibia 27.1436
lfoot -15.3178 1.3319
ltoes -22.9713
2499
root 1.26994 17.7787 1.17181 3.88324 13.6961 -2.56322
lowerback 7.28991 2.15758 -0.616557
upperback -0.117493 2.97562 3.31468
thorax -4.42195 1.53053 3.46087
lowerneck -31.4838 -3.63861 -4.30178
upperneck 1.442 -3.34895 3.01851
head 5.22878 -1.36542 1.25137
rclavicle 3.37934e-014 9.54166e-015
rhumerus 59.5311 -43.0005 -43.7842
rradius 40.8283
rwrist -15.51
rhand -51.3377 -4.91596
rfingers 7.12502
rthumb -23.8725 -33.4523
lclavicle 3.37934e-014 9.54166e-015
lhumerus -41.2179 13.4201 56.5213
lradius 38.8121
lwrist -15.4268
lhand -24.6841 32.7603
lfingers 7.12502
lthumb 1.81668 -297.268
rfemur -10.6102 -9.74792 16.103
rtibia 28.705
rfoot -20.6047 -10.091
rtoes 4.29423
lfemur -13.0533 -3.45338 -10.6329
ltibia 27.4167
lfoot -15.4255 0.990375
ltoes -22.9557
2500
root 1.28014 17.7744 1.1703 3.83375 14.2307 -2.7529
lowerback 7.2695 2.12711 -0.782737
upperback -0.102402 2.92116 3.32802
thorax -4.40025 1.50731 3.57582
lowerneck -31.3513 -3.8589 -4.32872
upperneck 1.16526 -3.61691 2.97265
head 5.12839 -1.49892 1.20837
rclavicle 1.2921e-014 2.78299e-014
rhumerus 59.1138 -43.1271 -43.5557
rradius 40.5917
rwrist -15.9271
rhand -51.4452 -4.96612
rfingers 7.12502
rthumb -23.9756 -33.489
lclavicle 1.2921e-014 2.78299e-014
lhumerus -41.7566 13.6336 56.7689
lradius 38.5744
lwrist -16.3438
lhand -25.2318 31.5511
lfingers 7.12502
lthumb 1.28766 -298.473
rfemur -10.3994 -10.1011 16.2857
rtibia 28.5029
rfoot -20.6812 -10.1999
rtoes 4.32425
lfemur -13.3459 -3.71178 -10.4242
ltibia 27.7138
lfoot -15.58 0.736146
ltoes -22.8296
2501
root 1.29157 17.7693 1.16672 3.79244 14.7262 -2.94134
lowerback 7.3029 2.12239 -0.952896
upperback -0.11733 2.90194 3.34007
thorax -4.44258 1.50248 3.68556
lowerneck -31.4193 -4.0201 -4.40733
upperneck 1.23409 -3.79646 3.01139
head 5.1676 -1.58186 1.20938
rclavicle 5.98342e-014 9.54166e-015
rhumerus 58.76 -43.247 -43.4614
rradius 40.3151
rwrist -15.9065
rhand -51.4703 -5.46413
rfingers 7.12502
rthumb -23.9997 -33.9838
lclavicle 5.98342e-014 9.54166e-015
lhumerus -42.2403 13.89 57.0016
lradius 38.2304
lwrist -17.3829
lhand -25.611 30.4438
lfingers 7.12502
lthumb 0.921414 -299.578
rfemur -10.2274 -10.4426 16.4542
rtibia 28.3265
rfoot -20.7174 -10.2917
rtoes 4.45379
lfemur -13.6481 -3.93618 -10.2322
ltibia 28.0075
lfoot -15.7255 0.543779
ltoes -23.272
2502
root 1.30639 17.7645 1.16384 3.7547 15.179 -3.11378
lowerback 7.31512 2.13152 -1.10529
upperback -0.144826 2.90216 3.34027
thorax -4.48595 1.50696 3.77115
lowerneck -31.4507 -4.17433 -4.62438
upperneck 1.49033 -3.94523 3.25012
head 5.2715 -1.63499 1.30102
rclavicle -2.88238e-015 1.66979e-014
rhumerus 58.3877 -43.3366 -43.3819
rradius 40.0726
rwrist -15.7838
rhand -50.9087 -6.84078
rfingers 7.12502
rthumb -23.461 -35.4304
lclavicle -2.88238e-015 1.66979e-014
lhumerus -42.7387 13.9796 57.3205
lradius 37.9958
lwrist -18.2008
lhand -25.7649 30.3076
lfingers 7.12502
lthumb 0.772808 -299.714
rfemur -10.0712 -10.8423 16.5832
rtibia 28.1626
rfoot -20.6366 -10.3727
rtoes 3.99412
lfemur -13.9094 -4.21972 -10.0735
ltibia 28.2752
lfoot -15.8202 0.419211
ltoes -23.5843
2503
root 1.32204 17.7624 1.1624 3.66055 15.6251 -3.32805
lowerback 7.29961 2.11354 -1.25192
upperback -0.125688 2.86806 3.39487
thorax -4.46502 1.49397 3.91612
lowerneck -31.2361 -4.30744 -4.80476
upperneck 1.37386 -4.07769 3.42324
head 5.21871 -1.68728 1.37168
rclavicle 5.35725e-014 -1.74931e-014
rhumerus 58.0329 -43.3177 -43.1695
rradius 39.8643
rwrist -15.872
rhand -50.4952 -7.83281
rfingers 7.12502
rthumb -23.0643 -36.4726
lclavicle 5.35725e-014 -1.74931e-014
lhumerus -43.187 14.0829 57.7518
lradius 37.7439
lwrist -18.8296
lhand -26.0663 29.7812
lfingers 7.12502
lthumb 0.481732 -300.24
rfemur -9.87257 -11.1932 16.7529
rtibia 28.001
rfoot -20.6237 -10.536
rtoes 3.32026
lfemur -14.1021 -4.47169 -9.87416
ltibia 28.5165
lfoot -15.9226 0.265805
ltoes -23.7787
2504
root 1.33614 17.7596 1.16177 3.56199 16.0733 -3.51374
lowerback 7.30778 2.11251 -1.42698
upperback -0.0732479 2.85295 3.43902
thorax -4.42489 1.49015 4.06383
lowerneck -31.2247 -4.49603 -4.99197
upperneck 1.27701 -4.26612 3.58456
head 5.20014 -1.76507 1.43057
rclavicle 3.65764e-014 2.34566e-014
rhumerus 57.7493 -43.3806 -42.9971
rradius 39.6715
rwrist -16.1384
rhand -50.43 -8.06211
rfingers 7.12502
rthumb -23.0018 -36.7096
lclavicle 3.65764e-014 2.34566e-014
lhumerus -43.5325 14.0302 58.3633
lradius 37.5302
lwrist -19.0994
lhand -26.358 28.7888
lfingers 7.12502
lthumb 0.199988 -301.232
rfemur -9.6378 -11.4473 16.889
rtibia 27.8128
rfoot -20.682 -10.6628
rtoes 3.52745
lfemur -14.2903 -4.77018 -9.69417
ltibia 28.7465
lfoot -16.0323 0.0976405
ltoes -23.6622
2505
root 1.35354 17.7555 1.16023 3.50783 16.4095 -3.6676
lowerback 7.32564 2.1699 -1.61511
upperback -0.0692865 2.91374 3.44046
thorax -4.44569 1.52494 4.16434
lowerneck -31.2453 -4.7094 -5.20608
upperneck 1.30958 -4.49217 3.8709
head 5.2352 -1.85034 1.52899
rclavicle -2.54941e-014 -2.82274e-014
rhumerus 57.418 -43.506 -42.9302
rradius 39.5959
rwrist -16.2864
rhand -50.5018 -8.13424
rfingers 7.12502
rthumb -23.0707 -36.7732
lclavicle -2.54941e-014 -2.82274e-014
lhumerus -43.8552 13.7596 59.0467
lradius 37.3636
lwrist -18.9667
lhand -26.4015 27.8734
lfingers 7.12502
lthumb 0.157966 -302.147
rfemur -9.46196 -11.6093 16.9788
rtibia 27.6178
rfoot -20.7338 -10.714
rtoes 3.76224
lfemur -14.4732 -5.03391 -9.57116
ltibia 28.9434
lfoot -16.0912 0.0226497
ltoes -23.7057
2506
root 1.37465 17.7523 1.15865 3.4052 16.6574 -3.93735
lowerback 7.32278 2.2359 -1.66585
upperback -0.0743932 2.99871 3.45703
thorax -4.46048 1.56893 4.20048
lowerneck -31.1317 -4.89965 -5.33757
upperneck 1.27642 -4.71814 4.08576
head 5.22895 -1.94291 1.59238
rclavicle -5.01931e-015 9.14409e-015
rhumerus 56.8003 -43.5517 -42.5785
rradius 39.7104
rwrist -16.6775
rhand -50.4557 -8.53125
rfingers 7.12502
rthumb -23.0264 -37.1757
lclavicle -5.01931e-015 9.14409e-015
lhumerus -44.0877 13.781 59.4834
lradius 36.9585
lwrist -19.3008
lhand -26.1814 27.2806
lfingers 7.12502
lthumb 0.370539 -302.74
rfemur -9.29034 -11.7409 17.1825
rtibia 27.4363
rfoot -20.7259 -10.7555
rtoes 3.89408
lfemur -14.5963 -5.21715 -9.34448
ltibia 29.1218
lfoot -16.1838 -0.0251827
ltoes -23.8632
2507
root 1.3944 17.7501 1.15898 3.30262 16.9553 -4.19544
lowerback 7.30811 2.27666 -1.72439
upperback -0.0935228 3.0492 3.46454
thorax -4.48027 1.59613 4.23578
lowerneck -30.9418 -5.06743 -5.40188
upperneck 1.19741 -4.93534 4.22525
head 5.19437 -2.03843 1.62256
rclavicle 8.97513e-014 -2.26615e-014
rhumerus 55.9254 -43.4954 -41.9144
rradius 39.9017
rwrist -17.3349
rhand -50.1338 -9.46335
rfingers 7.12502
rthumb -22.7175 -38.146
lclavicle 8.97513e-014 -2.26615e-014
lhumerus -44.345 13.7538 59.8229
lradius 36.4868
lwrist -19.591
lhand -25.9213 27.8746
lfingers 7.12502
lthumb 0.62176 -302.147
rfemur -9.1229 -11.9146 17.3893
rtibia 27.2643
rfoot -20.7078 -10.9016
rtoes 3.71803
lfemur -14.7614 -5.37822 -9.11771
ltibia 29.3005
lfoot -16.2872 -0.134825
ltoes -24.0661
2508
root 1.41367 17.7495 1.15645 3.22184 17.328 -4.31539
lowerback 7.32902 2.31288 -1.90788
upperback -0.0785349 3.08217 3.47304
thorax -4.48985 1.61688 4.34437
lowerneck -30.8529 -5.27267 -5.57386
upperneck 1.1141 -5.15739 4.38946
head 5.17478 -2.13362 1.67601
rclavicle -3.13583e-014 -2.42517e-014
rhumerus 55.5978 -43.5297 -41.686
rradius 39.8491
rwrist -17.8271
rhand -50.0633 -10.2146
rfingers 7.12502
rthumb -22.6499 -38.9055
lclavicle -3.13583e-014 -2.42517e-014
lhumerus -44.7743 13.379 60.3945
lradius 36.3274
lwrist -19.2615
lhand -25.767 28.6309
lfingers 7.12502
lthumb 0.770783 -301.391
rfemur -8.92732 -12.1257 17.4468
rtibia 27.0797
rfoot -20.6817 -11.106
rtoes 3.33483
lfemur -14.9353 -5.5364 -9.04387
ltibia 29.4951
lfoot -16.4088 -0.308094
ltoes -24.2975
2509
root 1.43538 17.7503 1.15224 3.2108 17.6296 -4.30835
lowerback 7.28863 2.37758 -2.16874
upperback -0.0439869 3.144 3.43532
thorax -4.449 1.65197 4.44718
lowerneck -30.8396 -5.48445 -5.72862
upperneck 1.03791 -5.38216 4.48922
head 5.16496 -2.23424 1.70423
rclavicle -6.2816e-014 -5.1684e-015
rhumerus 55.6778 -43.6142 -41.848
rradius 39.617
rwrist -18.131
rhand -50.4287 -10.3919
rfingers 7.12502
rthumb -23.0005 -39.0396
lclavicle -6.2816e-014 -5.1684e-015
lhumerus -45.0517 13.3475 60.8934
lradius 36.0367
lwrist -19.4123
lhand -25.7266 28.3574
lfingers 7.12502
lthumb 0.809849 -301.664
rfemur -8.78409 -12.3314 17.3585
rtibia 26.9328
rfoot -20.6595 -11.2547
rtoes 3.18012
lfemur -15.0866 -5.74569 -9.11548
ltibia 29.6875
lfoot -16.514 -0.44143
ltoes -24.0187
